<mxfile host="app.diagrams.net" agent="Mozilla/5.0 (Windows NT 10.0; Win64; x64) AppleWebKit/537.36 (KHTML, like Gecko) Chrome/133.0.0.0 Safari/537.36" version="26.0.14">
  <diagram name="Page-1" id="e1TiszcAQvgpfgPblTH6">
    <mxGraphModel dx="1194" dy="716" grid="1" gridSize="10" guides="1" tooltips="1" connect="1" arrows="1" fold="1" page="1" pageScale="1" pageWidth="850" pageHeight="1100" math="0" shadow="0">
      <root>
        <mxCell id="0" />
        <mxCell id="1" parent="0" />
        <mxCell id="WgxtZ3xMRt9cT9mJnqBo-4" value="4" style="ellipse;aspect=fixed;fillColor=#0050ef;fontColor=#ffffff;strokeColor=#001DBC;" parent="1" vertex="1">
          <mxGeometry x="250" y="350" width="50" height="50" as="geometry" />
        </mxCell>
        <mxCell id="WgxtZ3xMRt9cT9mJnqBo-5" value="5" style="ellipse;aspect=fixed;fillColor=#0050ef;fontColor=#ffffff;strokeColor=#001DBC;" parent="1" vertex="1">
          <mxGeometry x="320" y="430" width="50" height="50" as="geometry" />
        </mxCell>
        <mxCell id="WgxtZ3xMRt9cT9mJnqBo-6" value="8" style="ellipse;aspect=fixed;fillColor=#0050ef;fontColor=#ffffff;strokeColor=#001DBC;" parent="1" vertex="1">
          <mxGeometry x="570" y="330" width="50" height="50" as="geometry" />
        </mxCell>
        <mxCell id="WgxtZ3xMRt9cT9mJnqBo-7" value="6" style="ellipse;aspect=fixed;fillColor=#0050ef;fontColor=#ffffff;strokeColor=#001DBC;" parent="1" vertex="1">
          <mxGeometry x="430" y="430" width="50" height="50" as="geometry" />
        </mxCell>
        <mxCell id="WgxtZ3xMRt9cT9mJnqBo-8" value="7" style="ellipse;aspect=fixed;fillColor=#0050ef;fontColor=#ffffff;strokeColor=#001DBC;" parent="1" vertex="1">
          <mxGeometry x="580" y="420" width="50" height="50" as="geometry" />
        </mxCell>
        <mxCell id="QiN_mr4yA5usqslSAaUG-3" value="1" style="ellipse;aspect=fixed;fillColor=#0050ef;fontColor=#ffffff;strokeColor=#001DBC;" vertex="1" parent="1">
          <mxGeometry x="370" y="110" width="50" height="50" as="geometry" />
        </mxCell>
        <mxCell id="QiN_mr4yA5usqslSAaUG-4" value="2" style="ellipse;aspect=fixed;fillColor=#0050ef;fontColor=#ffffff;strokeColor=#001DBC;" vertex="1" parent="1">
          <mxGeometry x="250" y="140" width="50" height="50" as="geometry" />
        </mxCell>
        <mxCell id="QiN_mr4yA5usqslSAaUG-5" value="11" style="ellipse;aspect=fixed;fillColor=#0050ef;fontColor=#ffffff;strokeColor=#001DBC;" vertex="1" parent="1">
          <mxGeometry x="500" y="120" width="50" height="50" as="geometry" />
        </mxCell>
        <mxCell id="QiN_mr4yA5usqslSAaUG-11" value="10" style="ellipse;aspect=fixed;fillColor=#0050ef;fontColor=#ffffff;strokeColor=#001DBC;" vertex="1" parent="1">
          <mxGeometry x="580" y="180" width="50" height="50" as="geometry" />
        </mxCell>
        <mxCell id="QiN_mr4yA5usqslSAaUG-12" value="9" style="ellipse;aspect=fixed;fillColor=#0050ef;fontColor=#ffffff;strokeColor=#001DBC;" vertex="1" parent="1">
          <mxGeometry x="660" y="270" width="50" height="50" as="geometry" />
        </mxCell>
        <mxCell id="QiN_mr4yA5usqslSAaUG-13" value="3" style="ellipse;aspect=fixed;fillColor=#0050ef;fontColor=#ffffff;strokeColor=#001DBC;" vertex="1" parent="1">
          <mxGeometry x="220" y="250" width="50" height="50" as="geometry" />
        </mxCell>
        <mxCell id="QiN_mr4yA5usqslSAaUG-14" value="" style="endArrow=none;rounded=0;strokeWidth=4;exitX=1;exitY=0.5;exitDx=0;exitDy=0;entryX=0;entryY=0.5;entryDx=0;entryDy=0;" edge="1" parent="1" source="QiN_mr4yA5usqslSAaUG-13" target="WgxtZ3xMRt9cT9mJnqBo-6">
          <mxGeometry width="50" height="50" relative="1" as="geometry">
            <mxPoint x="400" y="390" as="sourcePoint" />
            <mxPoint x="440" y="320" as="targetPoint" />
          </mxGeometry>
        </mxCell>
        <mxCell id="QiN_mr4yA5usqslSAaUG-15" value="" style="endArrow=none;rounded=0;strokeWidth=4;exitX=0.5;exitY=1;exitDx=0;exitDy=0;entryX=0.5;entryY=0;entryDx=0;entryDy=0;" edge="1" parent="1" source="QiN_mr4yA5usqslSAaUG-3" target="WgxtZ3xMRt9cT9mJnqBo-5">
          <mxGeometry width="50" height="50" relative="1" as="geometry">
            <mxPoint x="260" y="285" as="sourcePoint" />
            <mxPoint x="601" y="359" as="targetPoint" />
          </mxGeometry>
        </mxCell>
        <mxCell id="QiN_mr4yA5usqslSAaUG-16" value="" style="endArrow=none;rounded=0;strokeWidth=4;exitX=1;exitY=0.5;exitDx=0;exitDy=0;entryX=0;entryY=0.5;entryDx=0;entryDy=0;" edge="1" parent="1" source="WgxtZ3xMRt9cT9mJnqBo-6" target="QiN_mr4yA5usqslSAaUG-12">
          <mxGeometry width="50" height="50" relative="1" as="geometry">
            <mxPoint x="405" y="170" as="sourcePoint" />
            <mxPoint x="355" y="440" as="targetPoint" />
          </mxGeometry>
        </mxCell>
        <mxCell id="QiN_mr4yA5usqslSAaUG-18" value="" style="endArrow=none;rounded=0;strokeWidth=4;exitX=0;exitY=0.5;exitDx=0;exitDy=0;entryX=1;entryY=0.5;entryDx=0;entryDy=0;" edge="1" parent="1" source="WgxtZ3xMRt9cT9mJnqBo-8" target="WgxtZ3xMRt9cT9mJnqBo-7">
          <mxGeometry width="50" height="50" relative="1" as="geometry">
            <mxPoint x="280" y="285" as="sourcePoint" />
            <mxPoint x="600" y="365" as="targetPoint" />
          </mxGeometry>
        </mxCell>
        <mxCell id="QiN_mr4yA5usqslSAaUG-35" value="" style="endArrow=none;rounded=0;strokeWidth=4;exitX=0.5;exitY=1;exitDx=0;exitDy=0;entryX=1;entryY=0;entryDx=0;entryDy=0;" edge="1" parent="1" source="QiN_mr4yA5usqslSAaUG-5" target="WgxtZ3xMRt9cT9mJnqBo-5">
          <mxGeometry width="50" height="50" relative="1" as="geometry">
            <mxPoint x="405" y="170" as="sourcePoint" />
            <mxPoint x="355" y="440" as="targetPoint" />
          </mxGeometry>
        </mxCell>
        <mxCell id="QiN_mr4yA5usqslSAaUG-36" value="" style="endArrow=none;rounded=0;strokeWidth=4;exitX=0;exitY=1;exitDx=0;exitDy=0;entryX=1;entryY=1;entryDx=0;entryDy=0;" edge="1" parent="1" source="QiN_mr4yA5usqslSAaUG-11" target="QiN_mr4yA5usqslSAaUG-4">
          <mxGeometry width="50" height="50" relative="1" as="geometry">
            <mxPoint x="415" y="180" as="sourcePoint" />
            <mxPoint x="365" y="450" as="targetPoint" />
          </mxGeometry>
        </mxCell>
        <mxCell id="QiN_mr4yA5usqslSAaUG-37" value="" style="endArrow=none;rounded=0;strokeWidth=4;exitX=0;exitY=1;exitDx=0;exitDy=0;entryX=1;entryY=0;entryDx=0;entryDy=0;" edge="1" parent="1" source="QiN_mr4yA5usqslSAaUG-11" target="WgxtZ3xMRt9cT9mJnqBo-7">
          <mxGeometry width="50" height="50" relative="1" as="geometry">
            <mxPoint x="425" y="190" as="sourcePoint" />
            <mxPoint x="375" y="460" as="targetPoint" />
          </mxGeometry>
        </mxCell>
        <mxCell id="QiN_mr4yA5usqslSAaUG-38" value="" style="endArrow=none;rounded=0;strokeWidth=4;exitX=1;exitY=0;exitDx=0;exitDy=0;entryX=0;entryY=0.5;entryDx=0;entryDy=0;" edge="1" parent="1" source="WgxtZ3xMRt9cT9mJnqBo-4" target="QiN_mr4yA5usqslSAaUG-12">
          <mxGeometry width="50" height="50" relative="1" as="geometry">
            <mxPoint x="435" y="200" as="sourcePoint" />
            <mxPoint x="385" y="470" as="targetPoint" />
          </mxGeometry>
        </mxCell>
        <mxCell id="QiN_mr4yA5usqslSAaUG-39" value="" style="endArrow=none;rounded=0;strokeWidth=4;exitX=0.5;exitY=1;exitDx=0;exitDy=0;entryX=1;entryY=0;entryDx=0;entryDy=0;" edge="1" parent="1" source="QiN_mr4yA5usqslSAaUG-3" target="WgxtZ3xMRt9cT9mJnqBo-4">
          <mxGeometry width="50" height="50" relative="1" as="geometry">
            <mxPoint x="445" y="210" as="sourcePoint" />
            <mxPoint x="395" y="480" as="targetPoint" />
          </mxGeometry>
        </mxCell>
        <mxCell id="QiN_mr4yA5usqslSAaUG-40" value="" style="endArrow=none;rounded=0;strokeWidth=4;exitX=0;exitY=0.5;exitDx=0;exitDy=0;entryX=1;entryY=0.5;entryDx=0;entryDy=0;" edge="1" parent="1" source="QiN_mr4yA5usqslSAaUG-5" target="QiN_mr4yA5usqslSAaUG-3">
          <mxGeometry width="50" height="50" relative="1" as="geometry">
            <mxPoint x="455" y="220" as="sourcePoint" />
            <mxPoint x="405" y="490" as="targetPoint" />
          </mxGeometry>
        </mxCell>
        <mxCell id="QiN_mr4yA5usqslSAaUG-41" value="" style="endArrow=none;rounded=0;strokeWidth=4;exitX=1;exitY=1;exitDx=0;exitDy=0;entryX=0.5;entryY=0;entryDx=0;entryDy=0;" edge="1" parent="1" source="QiN_mr4yA5usqslSAaUG-4" target="WgxtZ3xMRt9cT9mJnqBo-7">
          <mxGeometry width="50" height="50" relative="1" as="geometry">
            <mxPoint x="465" y="230" as="sourcePoint" />
            <mxPoint x="415" y="500" as="targetPoint" />
          </mxGeometry>
        </mxCell>
        <mxCell id="QiN_mr4yA5usqslSAaUG-42" value="" style="endArrow=none;rounded=0;strokeWidth=4;entryX=1;entryY=0.5;entryDx=0;entryDy=0;exitX=0;exitY=1;exitDx=0;exitDy=0;" edge="1" parent="1" source="QiN_mr4yA5usqslSAaUG-11" target="QiN_mr4yA5usqslSAaUG-13">
          <mxGeometry width="50" height="50" relative="1" as="geometry">
            <mxPoint x="590" y="220" as="sourcePoint" />
            <mxPoint x="425" y="510" as="targetPoint" />
          </mxGeometry>
        </mxCell>
        <mxCell id="QiN_mr4yA5usqslSAaUG-43" value="" style="endArrow=none;rounded=0;strokeWidth=4;exitX=0;exitY=0.5;exitDx=0;exitDy=0;entryX=1;entryY=0.5;entryDx=0;entryDy=0;" edge="1" parent="1" source="QiN_mr4yA5usqslSAaUG-12" target="WgxtZ3xMRt9cT9mJnqBo-8">
          <mxGeometry width="50" height="50" relative="1" as="geometry">
            <mxPoint x="485" y="250" as="sourcePoint" />
            <mxPoint x="550" y="420" as="targetPoint" />
          </mxGeometry>
        </mxCell>
      </root>
    </mxGraphModel>
  </diagram>
</mxfile>
